<svg xmlns="http://www.w3.org/2000/svg" viewBox="0 0 512 512" width="512" height="512">
  <defs>
    <linearGradient id="grad1" x1="0%" y1="0%" x2="100%" y2="100%">
      <stop offset="0%" style="stop-color:#ea580c;stop-opacity:1" />
      <stop offset="100%" style="stop-color:#c2410c;stop-opacity:1" />
    </linearGradient>
  </defs>
  
  <!-- Background Circle (Optional, often good for app icons) -->
  <rect x="0" y="0" width="512" height="512" rx="100" fill="#f8fafc" />
  
  <!-- Main Icon Group -->
  <g transform="translate(106, 106) scale(0.6)">
    <!-- Beaker / Measurement Glass Shape -->
    <path d="M110 40 L110 380 Q110 440 170 440 L330 440 Q390 440 390 380 L390 40" 
          fill="none" 
          stroke="#ea580c" 
          stroke-width="32" 
          stroke-linecap="round" 
          stroke-linejoin="round"/>
          
    <!-- Rim -->
    <path d="M90 40 L410 40" 
          stroke="#ea580c" 
          stroke-width="32" 
          stroke-linecap="round"/>
          
    <!-- Liquid Level (Wave) -->
    <path d="M126 240 Q250 280 374 240 L374 380 Q374 424 330 424 L170 424 Q126 424 126 380 Z" 
          fill="url(#grad1)" 
          opacity="0.9"/>
          
    <!-- Measurement Lines -->
    <line x1="390" y1="120" x2="330" y2="120" stroke="#ea580c" stroke-width="24" stroke-linecap="round" />
    <line x1="390" y1="180" x2="330" y2="180" stroke="#ea580c" stroke-width="24" stroke-linecap="round" />
    
    <!-- Cocktail Garnish / Citrus Peel -->
    <path d="M280 40 Q320 -20 380 20" 
          fill="none" 
          stroke="#1e293b" 
          stroke-width="24" 
          stroke-linecap="round"/>
  </g>
</svg>
