<svg xmlns="http://www.w3.org/2000/svg" viewBox="0 0 512 512" width="512" height="512">
  <defs>
    <linearGradient id="grad3" x1="0%" y1="0%" x2="0%" y2="100%">
      <stop offset="0%" style="stop-color:#ea580c;stop-opacity:1" />
      <stop offset="100%" style="stop-color:#9a3412;stop-opacity:1" />
    </linearGradient>
  </defs>

    <!-- Background Circle -->
  <circle cx="256" cy="256" r="256" fill="#f8fafc" />

  <g transform="translate(120, 80) scale(0.7)">
    <!-- Shaker Top Cap -->
    <path d="M150 60 Q200 20 250 60 L250 90 L150 90 Z" 
          fill="none" stroke="#ea580c" stroke-width="24" stroke-linejoin="round"/>
          
    <!-- Shaker Strainer Section -->
    <path d="M120 90 L280 90 L260 160 L140 160 Z" 
          fill="none" stroke="#ea580c" stroke-width="24" stroke-linejoin="round"/>

    <!-- Shaker Tin Body -->
    <path d="M140 170 L260 170 L240 460 Q200 480 160 460 Z" 
          fill="none" stroke="#ea580c" stroke-width="24" stroke-linejoin="round"/>
          
    <!-- Filled Liquid Section (Bottom half) -->
    <path d="M150 300 L250 300 L244 450 Q200 470 156 450 Z" 
          fill="url(#grad3)" />
          
     <!-- Abstract "Calculator" Plus Signs floating -->
     <g stroke="#ea580c" stroke-width="18" stroke-linecap="round">
        <line x1="320" y1="120" x2="360" y2="120" />
        <line x1="340" y1="100" x2="340" y2="140" />
        
        <line x1="50" y1="200" x2="90" y2="200" />
        <line x1="70" y1="180" x2="70" y2="220" />
     </g>
  </g>
</svg>
